<mxfile host="app.diagrams.net" agent="Mozilla/5.0 (X11; Linux x86_64; rv:138.0) Gecko/20100101 Firefox/138.0" version="27.0.2">
  <diagram name="Page-1" id="OWC_KKA009irrevfmrrw">
    <mxGraphModel dx="783" dy="1659" grid="0" gridSize="10" guides="1" tooltips="1" connect="1" arrows="1" fold="1" page="0" pageScale="1" pageWidth="1169" pageHeight="827" background="light-dark(#FFFFFF,#222222)" math="0" shadow="0">
      <root>
        <mxCell id="0" />
        <mxCell id="1" parent="0" />
        <mxCell id="PfSpk5NvbkcI9RBnBGga-21" value="Broker" style="swimlane;fontStyle=1;align=center;verticalAlign=top;childLayout=stackLayout;horizontal=1;startSize=26;horizontalStack=0;resizeParent=1;resizeParentMax=0;resizeLast=0;collapsible=1;marginBottom=0;whiteSpace=wrap;html=1;strokeColor=default;fontFamily=Helvetica;fontSize=12;fontColor=default;fillColor=default;" parent="1" vertex="1">
          <mxGeometry x="964" y="-423" width="180" height="129" as="geometry">
            <mxRectangle x="410" y="210" width="100" height="30" as="alternateBounds" />
          </mxGeometry>
        </mxCell>
        <mxCell id="PfSpk5NvbkcI9RBnBGga-22" value="&lt;div&gt;&lt;br&gt;&lt;/div&gt;&lt;div&gt;&lt;br&gt;&lt;/div&gt;" style="text;strokeColor=none;fillColor=none;align=left;verticalAlign=top;spacingLeft=4;spacingRight=4;overflow=hidden;rotatable=0;points=[[0,0.5],[1,0.5]];portConstraint=eastwest;whiteSpace=wrap;html=1;fontFamily=Helvetica;fontSize=12;fontColor=default;" parent="PfSpk5NvbkcI9RBnBGga-21" vertex="1">
          <mxGeometry y="26" width="180" height="34" as="geometry" />
        </mxCell>
        <mxCell id="PfSpk5NvbkcI9RBnBGga-23" value="" style="line;strokeWidth=1;fillColor=default;align=left;verticalAlign=top;spacingTop=-1;spacingLeft=3;spacingRight=3;rotatable=0;labelPosition=right;points=[];portConstraint=eastwest;strokeColor=default;fontFamily=Helvetica;fontSize=12;fontColor=default;" parent="PfSpk5NvbkcI9RBnBGga-21" vertex="1">
          <mxGeometry y="60" width="180" height="8" as="geometry" />
        </mxCell>
        <mxCell id="PfSpk5NvbkcI9RBnBGga-24" value="&lt;div&gt;+ addObserver(Agency)&lt;/div&gt;&lt;div&gt;+ removeObserver(Agency)&lt;/div&gt;&lt;div&gt;+ notifyObserver(String)&lt;/div&gt;" style="text;strokeColor=none;fillColor=none;align=left;verticalAlign=top;spacingLeft=4;spacingRight=4;overflow=hidden;rotatable=0;points=[[0,0.5],[1,0.5]];portConstraint=eastwest;whiteSpace=wrap;html=1;fontFamily=Helvetica;fontSize=12;fontColor=default;" parent="PfSpk5NvbkcI9RBnBGga-21" vertex="1">
          <mxGeometry y="68" width="180" height="61" as="geometry" />
        </mxCell>
        <mxCell id="PIewIz3_iiUH9ZQie-qa-1" value="Agency" style="swimlane;fontStyle=1;align=center;verticalAlign=top;childLayout=stackLayout;horizontal=1;startSize=26;horizontalStack=0;resizeParent=1;resizeParentMax=0;resizeLast=0;collapsible=1;marginBottom=0;whiteSpace=wrap;html=1;strokeColor=default;fontFamily=Helvetica;fontSize=12;fontColor=default;fillColor=default;" vertex="1" parent="1">
          <mxGeometry x="1233" y="-423" width="180" height="100" as="geometry">
            <mxRectangle x="410" y="210" width="100" height="30" as="alternateBounds" />
          </mxGeometry>
        </mxCell>
        <mxCell id="PIewIz3_iiUH9ZQie-qa-2" value="&lt;div&gt;&lt;br&gt;&lt;/div&gt;&lt;div&gt;&lt;br&gt;&lt;/div&gt;" style="text;strokeColor=none;fillColor=none;align=left;verticalAlign=top;spacingLeft=4;spacingRight=4;overflow=hidden;rotatable=0;points=[[0,0.5],[1,0.5]];portConstraint=eastwest;whiteSpace=wrap;html=1;fontFamily=Helvetica;fontSize=12;fontColor=default;" vertex="1" parent="PIewIz3_iiUH9ZQie-qa-1">
          <mxGeometry y="26" width="180" height="34" as="geometry" />
        </mxCell>
        <mxCell id="PIewIz3_iiUH9ZQie-qa-3" value="" style="line;strokeWidth=1;fillColor=default;align=left;verticalAlign=top;spacingTop=-1;spacingLeft=3;spacingRight=3;rotatable=0;labelPosition=right;points=[];portConstraint=eastwest;strokeColor=default;fontFamily=Helvetica;fontSize=12;fontColor=default;" vertex="1" parent="PIewIz3_iiUH9ZQie-qa-1">
          <mxGeometry y="60" width="180" height="8" as="geometry" />
        </mxCell>
        <mxCell id="PIewIz3_iiUH9ZQie-qa-4" value="+ update(String)" style="text;strokeColor=none;fillColor=none;align=left;verticalAlign=top;spacingLeft=4;spacingRight=4;overflow=hidden;rotatable=0;points=[[0,0.5],[1,0.5]];portConstraint=eastwest;whiteSpace=wrap;html=1;fontFamily=Helvetica;fontSize=12;fontColor=default;" vertex="1" parent="PIewIz3_iiUH9ZQie-qa-1">
          <mxGeometry y="68" width="180" height="32" as="geometry" />
        </mxCell>
        <mxCell id="PIewIz3_iiUH9ZQie-qa-5" value="NewBroker" style="swimlane;fontStyle=1;align=center;verticalAlign=top;childLayout=stackLayout;horizontal=1;startSize=26;horizontalStack=0;resizeParent=1;resizeParentMax=0;resizeLast=0;collapsible=1;marginBottom=0;whiteSpace=wrap;html=1;strokeColor=default;fontFamily=Helvetica;fontSize=12;fontColor=default;fillColor=default;" vertex="1" parent="1">
          <mxGeometry x="959" y="-193" width="180" height="130" as="geometry">
            <mxRectangle x="410" y="210" width="100" height="30" as="alternateBounds" />
          </mxGeometry>
        </mxCell>
        <mxCell id="PIewIz3_iiUH9ZQie-qa-6" value="- agencies: List&amp;lt;Agency&amp;gt;" style="text;strokeColor=none;fillColor=none;align=left;verticalAlign=top;spacingLeft=4;spacingRight=4;overflow=hidden;rotatable=0;points=[[0,0.5],[1,0.5]];portConstraint=eastwest;whiteSpace=wrap;html=1;fontFamily=Helvetica;fontSize=12;fontColor=default;" vertex="1" parent="PIewIz3_iiUH9ZQie-qa-5">
          <mxGeometry y="26" width="180" height="34" as="geometry" />
        </mxCell>
        <mxCell id="PIewIz3_iiUH9ZQie-qa-7" value="" style="line;strokeWidth=1;fillColor=default;align=left;verticalAlign=top;spacingTop=-1;spacingLeft=3;spacingRight=3;rotatable=0;labelPosition=right;points=[];portConstraint=eastwest;strokeColor=default;fontFamily=Helvetica;fontSize=12;fontColor=default;" vertex="1" parent="PIewIz3_iiUH9ZQie-qa-5">
          <mxGeometry y="60" width="180" height="8" as="geometry" />
        </mxCell>
        <mxCell id="PIewIz3_iiUH9ZQie-qa-8" value="&lt;div&gt;+ addObserver(Agency)&lt;/div&gt;&lt;div&gt;+ removeObserver(Agency)&lt;/div&gt;&lt;div&gt;+ notifyObservers(String)&lt;/div&gt;" style="text;strokeColor=none;fillColor=none;align=left;verticalAlign=top;spacingLeft=4;spacingRight=4;overflow=hidden;rotatable=0;points=[[0,0.5],[1,0.5]];portConstraint=eastwest;whiteSpace=wrap;html=1;fontFamily=Helvetica;fontSize=12;fontColor=default;" vertex="1" parent="PIewIz3_iiUH9ZQie-qa-5">
          <mxGeometry y="68" width="180" height="62" as="geometry" />
        </mxCell>
        <mxCell id="PIewIz3_iiUH9ZQie-qa-10" value="" style="endArrow=block;dashed=1;endFill=0;endSize=12;html=1;rounded=0;exitX=0.5;exitY=0;exitDx=0;exitDy=0;entryX=0.472;entryY=1.031;entryDx=0;entryDy=0;entryPerimeter=0;" edge="1" parent="1" source="PIewIz3_iiUH9ZQie-qa-5" target="PfSpk5NvbkcI9RBnBGga-24">
          <mxGeometry width="160" relative="1" as="geometry">
            <mxPoint x="1048" y="-200" as="sourcePoint" />
            <mxPoint x="1054" y="-277" as="targetPoint" />
          </mxGeometry>
        </mxCell>
        <mxCell id="PIewIz3_iiUH9ZQie-qa-11" value="NewAgency" style="swimlane;fontStyle=1;align=center;verticalAlign=top;childLayout=stackLayout;horizontal=1;startSize=26;horizontalStack=0;resizeParent=1;resizeParentMax=0;resizeLast=0;collapsible=1;marginBottom=0;whiteSpace=wrap;html=1;strokeColor=default;fontFamily=Helvetica;fontSize=12;fontColor=default;fillColor=default;" vertex="1" parent="1">
          <mxGeometry x="1233" y="-193" width="180" height="128" as="geometry">
            <mxRectangle x="410" y="210" width="100" height="30" as="alternateBounds" />
          </mxGeometry>
        </mxCell>
        <mxCell id="PIewIz3_iiUH9ZQie-qa-12" value="- name: String" style="text;strokeColor=none;fillColor=none;align=left;verticalAlign=top;spacingLeft=4;spacingRight=4;overflow=hidden;rotatable=0;points=[[0,0.5],[1,0.5]];portConstraint=eastwest;whiteSpace=wrap;html=1;fontFamily=Helvetica;fontSize=12;fontColor=default;" vertex="1" parent="PIewIz3_iiUH9ZQie-qa-11">
          <mxGeometry y="26" width="180" height="34" as="geometry" />
        </mxCell>
        <mxCell id="PIewIz3_iiUH9ZQie-qa-13" value="" style="line;strokeWidth=1;fillColor=default;align=left;verticalAlign=top;spacingTop=-1;spacingLeft=3;spacingRight=3;rotatable=0;labelPosition=right;points=[];portConstraint=eastwest;strokeColor=default;fontFamily=Helvetica;fontSize=12;fontColor=default;" vertex="1" parent="PIewIz3_iiUH9ZQie-qa-11">
          <mxGeometry y="60" width="180" height="8" as="geometry" />
        </mxCell>
        <mxCell id="PIewIz3_iiUH9ZQie-qa-14" value="&lt;div&gt;+ NewAgency()&lt;/div&gt;&lt;div&gt;+ getName(): String&lt;/div&gt;&lt;div&gt;+ update(String)&lt;/div&gt;" style="text;strokeColor=none;fillColor=none;align=left;verticalAlign=top;spacingLeft=4;spacingRight=4;overflow=hidden;rotatable=0;points=[[0,0.5],[1,0.5]];portConstraint=eastwest;whiteSpace=wrap;html=1;fontFamily=Helvetica;fontSize=12;fontColor=default;" vertex="1" parent="PIewIz3_iiUH9ZQie-qa-11">
          <mxGeometry y="68" width="180" height="60" as="geometry" />
        </mxCell>
        <mxCell id="PIewIz3_iiUH9ZQie-qa-16" value="" style="endArrow=block;dashed=1;endFill=0;endSize=12;html=1;rounded=0;exitX=0.5;exitY=0;exitDx=0;exitDy=0;entryX=0.5;entryY=1;entryDx=0;entryDy=0;" edge="1" parent="1" source="PIewIz3_iiUH9ZQie-qa-11" target="PIewIz3_iiUH9ZQie-qa-1">
          <mxGeometry width="160" relative="1" as="geometry">
            <mxPoint x="1036" y="-183" as="sourcePoint" />
            <mxPoint x="1036" y="-291" as="targetPoint" />
          </mxGeometry>
        </mxCell>
        <mxCell id="PIewIz3_iiUH9ZQie-qa-20" style="rounded=0;orthogonalLoop=1;jettySize=auto;html=1;entryX=1;entryY=0.103;entryDx=0;entryDy=0;entryPerimeter=0;exitX=0.003;exitY=0.105;exitDx=0;exitDy=0;exitPerimeter=0;" edge="1" parent="1" source="PIewIz3_iiUH9ZQie-qa-11" target="PIewIz3_iiUH9ZQie-qa-5">
          <mxGeometry relative="1" as="geometry">
            <mxPoint x="1231" y="-181" as="sourcePoint" />
          </mxGeometry>
        </mxCell>
        <mxCell id="PIewIz3_iiUH9ZQie-qa-22" value="" style="group" vertex="1" connectable="0" parent="1">
          <mxGeometry x="1144" y="-433" width="85" height="26" as="geometry" />
        </mxCell>
        <mxCell id="PIewIz3_iiUH9ZQie-qa-17" style="rounded=0;orthogonalLoop=1;jettySize=auto;html=1;exitX=1;exitY=0.109;exitDx=0;exitDy=0;exitPerimeter=0;entryX=0.002;entryY=0.131;entryDx=0;entryDy=0;entryPerimeter=0;" edge="1" parent="PIewIz3_iiUH9ZQie-qa-22" source="PfSpk5NvbkcI9RBnBGga-21" target="PIewIz3_iiUH9ZQie-qa-1">
          <mxGeometry relative="1" as="geometry">
            <mxPoint x="87" y="24" as="targetPoint" />
          </mxGeometry>
        </mxCell>
        <mxCell id="PIewIz3_iiUH9ZQie-qa-18" value="1" style="text;align=center;fontStyle=1;verticalAlign=middle;spacingLeft=3;spacingRight=3;strokeColor=none;rotatable=0;points=[[0,0.5],[1,0.5]];portConstraint=eastwest;html=1;" vertex="1" parent="PIewIz3_iiUH9ZQie-qa-22">
          <mxGeometry width="23" height="26" as="geometry" />
        </mxCell>
        <mxCell id="PIewIz3_iiUH9ZQie-qa-19" value="*" style="text;align=center;fontStyle=1;verticalAlign=middle;spacingLeft=3;spacingRight=3;strokeColor=none;rotatable=0;points=[[0,0.5],[1,0.5]];portConstraint=eastwest;html=1;" vertex="1" parent="PIewIz3_iiUH9ZQie-qa-22">
          <mxGeometry x="62" width="23" height="26" as="geometry" />
        </mxCell>
        <mxCell id="PIewIz3_iiUH9ZQie-qa-25" value="SUBJECT" style="text;html=1;align=center;verticalAlign=middle;whiteSpace=wrap;rounded=0;fontStyle=1;fontColor=light-dark(#000000,#00E1FF);" vertex="1" parent="1">
          <mxGeometry x="1024" y="-472" width="60" height="30" as="geometry" />
        </mxCell>
        <mxCell id="PIewIz3_iiUH9ZQie-qa-26" value="OBSERVER" style="text;html=1;align=center;verticalAlign=middle;whiteSpace=wrap;rounded=0;fontStyle=1;fontColor=light-dark(#000000,#00E1FF);" vertex="1" parent="1">
          <mxGeometry x="1293" y="-472" width="60" height="30" as="geometry" />
        </mxCell>
        <mxCell id="PIewIz3_iiUH9ZQie-qa-27" value="Concrete Subject" style="text;html=1;align=center;verticalAlign=middle;whiteSpace=wrap;rounded=0;fontStyle=1;fontColor=light-dark(#000000,#00E1FF);" vertex="1" parent="1">
          <mxGeometry x="1021" y="-40" width="60" height="30" as="geometry" />
        </mxCell>
        <mxCell id="PIewIz3_iiUH9ZQie-qa-28" value="Concrete Observer" style="text;html=1;align=center;verticalAlign=middle;whiteSpace=wrap;rounded=0;fontStyle=1;fontColor=light-dark(#000000,#00E1FF);" vertex="1" parent="1">
          <mxGeometry x="1293" y="-40" width="60" height="30" as="geometry" />
        </mxCell>
      </root>
    </mxGraphModel>
  </diagram>
</mxfile>
